# xmcd
# 
# Track frame offsets:
#     182
#     12187
#     28125
#     48487
#     64882
#     77605
#     88460
#     101382
#     114695
#     132845
#     146332
#     161927
#     176007
#     192105
#     202940
#     216142
#     234800
#     245670
#     261955
#     277597
#     290207
#     299352
# 
# Disc length: 4281
# 
# Revision: 6
# Processed by: cddbd v1.5.2PL0 Copyright (c) Steve Scherf et al.
# Submitted via: fre:ac v1.0.27
# 
DISCID=4710b716
DTITLE=Various Artist - The Very Best Of Country Volume 1
DYEAR=1995
DGENRE=Country
TTITLE0=Dolly Parton - Jolene
TTITLE1=Willie Nelson - Always On My Mind
TTITLE2=Kris Kristofferson - Sunday Morning Coming Down
TTITLE3=Olivia Newton-John - I Honestly Love You
TTITLE4=Don Williams - You're My Best Friend
TTITLE5=Roy Orbison - Only The Lonely
TTITLE6=Kenny Rogers - Ruby Don't Take Your Love To Town
TTITLE7=Lynn Anderson - Rose Garden
TTITLE8=Billy Swan - I Can Help
TTITLE9=Geraldine - Have I Told You Lately
TTITLE10=Smokie - Living Next Door To Alice
TTITLE11=Pam Tillis - Shake The Sugar Tree
TTITLE12=Billy Joe Spears - Blanket On The Ground
TTITLE13=Jennifer Warnes - Don't Make Me Over
TTITLE14=Glen Campbell - Gentle On My Mind
TTITLE15=Juice Newton - Angel Of The Morning
TTITLE16=Slim Whitman - Rosemarie
TTITLE17=Foster and Allen - Maggie
TTITLE18=Radney Foster - Nobody Wins
TTITLE19=Jim Reeves - Bimbo
TTITLE20=Charlie Pride - Kiss An Angel Good Morning
TTITLE21=Exile - Kiss You All Over
EXTD=
EXTT0=
EXTT1=
EXTT2=
EXTT3=
EXTT4=
EXTT5=
EXTT6=
EXTT7=
EXTT8=
EXTT9=
EXTT10=
EXTT11=
EXTT12=
EXTT13=
EXTT14=
EXTT15=
EXTT16=
EXTT17=
EXTT18=
EXTT19=
EXTT20=
EXTT21=
PLAYORDER=
